<?xml version="1.0" encoding="iso-8859-1"?>
<!-- Generator: Adobe Illustrator 19.0.0, SVG Export Plug-In . SVG Version: 6.00 Build 0)  -->
<svg version="1.1" id="Layer_1" xmlns="http://www.w3.org/2000/svg" xmlns:xlink="http://www.w3.org/1999/xlink" x="0px" y="0px"
	 viewBox="0 0 503.838 503.838" style="enable-background:new 0 0 503.838 503.838;" xml:space="preserve">
<g>
	<path style="fill:#FDC794;" d="M415.509,432.044l-123.259-52.148l0,0c0,0-0.948,0-1.896-0.948h-7.585
		c-16.119,0-28.444-12.326-28.444-28.444v-8.533c0-16.119,12.326-29.393,28.444-29.393h1.896c-17.067,0-30.341-11.378-30.341-28.444
		v-5.689c0-17.067,13.274-32.237,30.341-32.237h7.585c-16.119,0-28.444-12.326-28.444-28.444v-8.533
		c0-16.119,12.326-29.393,28.444-29.393h-75.852l18.963-27.496c13.274-18.015,45.511-77.748,48.356-112.83
		c2.844-29.393-46.459-65.422-59.733-12.326c-9.481,37.926-50.252,91.97-76.8,114.726c-17.067,14.222-27.496,33.185-35.081,47.407
		H74.175c-16.119,0-28.444,8.533-28.444,24.652v170.667c0,15.17,12.326,32.237,28.444,32.237h37.926
		c40.77,30.341,38.874,29.393,132.741,29.393l161.185,52.148c20.859,7.585,36.978,9.481,47.407-9.481
		C463.864,467.125,459.123,454.799,415.509,432.044"/>
	<path style="fill:#FDC794;" d="M396.546,246.207H292.249c-16.119,0-28.444-12.326-28.444-28.444v-8.533
		c0-16.119,12.326-29.393,28.444-29.393h104.296c16.119,0,28.444,13.274,28.444,29.393v8.533
		C424.99,233.881,412.664,246.207,396.546,246.207"/>
</g>
<path style="fill:#F9A671;" d="M396.546,255.688H292.249c-20.859,0-37.926-17.067-37.926-37.926v-8.533
	c0-21.807,17.067-38.874,37.926-38.874h104.296c20.859,0,37.926,17.067,37.926,38.874v8.533
	C434.472,238.621,417.405,255.688,396.546,255.688z M292.249,189.318c-10.43,0-18.963,8.533-18.963,19.911v8.533
	c0,10.43,8.533,18.963,18.963,18.963h104.296c10.43,0,18.963-8.533,18.963-18.963v-8.533c0-11.378-8.533-19.911-18.963-19.911
	H292.249z"/>
<path style="fill:#FDC794;" d="M403.183,312.577H284.664c-17.067,0-30.341-11.378-30.341-28.444v-5.689
	c0-17.067,13.274-32.237,30.341-32.237h119.467c17.067,0,31.289,11.378,31.289,28.444v5.689
	C434.472,296.458,420.249,312.577,403.183,312.577"/>
<path style="fill:#F9A671;" d="M403.183,322.059H284.664c-22.756,0-39.822-16.119-39.822-37.926v-5.689
	c0-22.756,18.015-41.719,39.822-41.719h119.467c22.756,0,40.77,17.067,40.77,37.926v5.689
	C443.953,302.147,424.99,322.059,403.183,322.059z M284.664,255.688c-11.378,0-20.859,10.43-20.859,22.756v5.689
	c0,11.378,8.533,18.963,20.859,18.963h119.467c11.378,0,21.807-11.378,21.807-22.756v-5.689c0-12.326-11.378-18.963-21.807-18.963
	H284.664z"/>
<path style="fill:#FDC794;" d="M386.116,378.947H282.768c-16.119,0-28.444-12.326-28.444-28.444v-8.533
	c0-16.119,12.326-29.393,28.444-29.393h103.348c16.119,0,29.393,13.274,29.393,29.393v8.533
	C415.509,366.621,402.234,378.947,386.116,378.947"/>
<g>
	<path style="fill:#F9A671;" d="M386.116,388.429H282.768c-20.859,0-37.926-17.067-37.926-37.926v-8.533
		c0-21.807,17.067-38.874,37.926-38.874h103.348c20.859,0,38.874,18.015,38.874,38.874v8.533
		C424.99,371.362,407.923,388.429,386.116,388.429z M282.768,322.059c-10.43,0-18.963,8.533-18.963,19.911v8.533
		c0,10.43,8.533,18.963,18.963,18.963h103.348c11.378,0,19.911-8.533,19.911-18.963v-8.533c0-10.43-9.482-19.911-19.911-19.911
		H282.768z"/>
	<path style="fill:#F9A671;" d="M102.62,284.133c-3.793,0-7.585-2.844-9.481-6.637c-0.948-1.896-11.378-37.926,10.43-82.489
		c1.896-4.741,7.585-6.637,12.326-4.741c4.741,1.896,6.637,7.585,4.741,12.326c-18.015,37.926-9.481,68.267-9.481,69.215
		c1.896,4.741-0.948,10.43-6.637,12.326C104.516,284.133,103.568,284.133,102.62,284.133z"/>
</g>
<g>
</g>
<g>
</g>
<g>
</g>
<g>
</g>
<g>
</g>
<g>
</g>
<g>
</g>
<g>
</g>
<g>
</g>
<g>
</g>
<g>
</g>
<g>
</g>
<g>
</g>
<g>
</g>
<g>
</g>
</svg>
